HIERARCHY
ROOT Hips
{
	OFFSET 0.000000 0.000000 0.000000
	CHANNELS 6 Xposition Yposition Zposition Xrotation Yrotation Zrotation
	JOINT LeftUpLeg_virtual
	{
		OFFSET 0.000000 0.000000 0.000000
		CHANNELS 3 Xrotation Yrotation Zrotation
		JOINT LeftUpLeg
		{
			OFFSET 10.205400 -3.823500 0.155100
			CHANNELS 3 Xrotation Yrotation Zrotation
			JOINT LeftLeg
			{
				OFFSET 0.708757 -12.982077 0.567790
				CHANNELS 3 Xrotation Yrotation Zrotation
				JOINT LeftFoot
				{
					OFFSET -0.708756 -10.717838 -2.184338
					CHANNELS 3 Xrotation Yrotation Zrotation
					JOINT LeftToeBase
					{
						OFFSET 0.108149 -7.191104 7.560241
						CHANNELS 3 Xrotation Yrotation Zrotation
						JOINT LeftToe_End
						{
							OFFSET 0.070230 0.081724 4.490308
							CHANNELS 3 Xrotation Yrotation Zrotation
							End Site
							{
								OFFSET 0 0 0
							}
						}
					}
				}
			}
		}
	}
	JOINT RightUpLeg_virtual
	{
		OFFSET 0.000000 0.000000 0.000000
		CHANNELS 3 Xrotation Yrotation Zrotation
		JOINT RightUpLeg
		{
			OFFSET -10.205400 -3.823500 0.005500
			CHANNELS 3 Xrotation Yrotation Zrotation
			JOINT RightLeg
			{
				OFFSET -0.708756 -12.982134 0.610632
				CHANNELS 3 Xrotation Yrotation Zrotation
				JOINT RightFoot
				{
					OFFSET 0.708754 -10.717769 -1.945823
					CHANNELS 3 Xrotation Yrotation Zrotation
					JOINT RightToeBase
					{
						OFFSET -0.108140 -7.191069 7.372968
						CHANNELS 3 Xrotation Yrotation Zrotation
						JOINT RightToe_End
						{
							OFFSET -0.070227 0.081735 4.479403
							CHANNELS 3 Xrotation Yrotation Zrotation
							End Site
							{
								OFFSET 0 0 0
							}
						}
					}
				}
			}
		}
	}
	JOINT Spine_virtual
	{
		OFFSET 0.000000 0.000000 0.000000
		CHANNELS 3 Xrotation Yrotation Zrotation
		JOINT Spine
		{
			OFFSET 0.000000 6.876099 0.125700
			CHANNELS 3 Xrotation Yrotation Zrotation
			JOINT Spine1
			{
				OFFSET 0.000000 5.730043 0.104720
				CHANNELS 3 Xrotation Yrotation Zrotation
				JOINT Spine1_split
				{
					OFFSET 0.000000 5.730043 0.104720
					CHANNELS 3 Xrotation Yrotation Zrotation
					JOINT Spine2
					{
						OFFSET 0.000000 5.730043 0.104720
						CHANNELS 3 Xrotation Yrotation Zrotation
						JOINT Neck_virtual
						{
							OFFSET 0.000000 0.000000 0.000000
							CHANNELS 3 Xrotation Yrotation Zrotation
							JOINT Neck
							{
								OFFSET 0.000000 10.314075 0.188496
								CHANNELS 3 Xrotation Yrotation Zrotation
								JOINT Head
								{
									OFFSET 0.000000 7.643700 -2.377400
									CHANNELS 3 Xrotation Yrotation Zrotation
									JOINT HeadTop_End
									{
										OFFSET 0.000000 43.788605 -13.619600
										CHANNELS 3 Xrotation Yrotation Zrotation
										End Site
										{
											OFFSET 0 0 0
										}
									}
								}
							}
						}
						JOINT LeftShoulder_virtual
						{
							OFFSET 0.000000 0.000000 0.000000
							CHANNELS 3 Xrotation Yrotation Zrotation
							JOINT LeftShoulder
							{
								OFFSET 2.196100 4.412489 0.087492
								CHANNELS 3 Xrotation Yrotation Zrotation
								JOINT LeftShoulder_split
								{
									OFFSET 2.196100 4.412489 0.087492
									CHANNELS 3 Xrotation Yrotation Zrotation
									JOINT LeftArm
									{
										OFFSET 8.771219 -2.981674 -0.026999
										CHANNELS 3 Xrotation Yrotation Zrotation
										JOINT LeftForeArm
										{
											OFFSET 8.512804 0.000000 -0.000000
											CHANNELS 3 Xrotation Yrotation Zrotation
											JOINT LeftHand
											{
												OFFSET 18.484802 0.000000 -0.000000
												CHANNELS 3 Xrotation Yrotation Zrotation
												End Site
												{
													OFFSET 0 0 0
												}
											}
										}
									}
								}
							}
						}
						JOINT RightShoulder_virtual
						{
							OFFSET 0.000000 0.000000 0.000000
							CHANNELS 3 Xrotation Yrotation Zrotation
							JOINT RightShoulder
							{
								OFFSET -2.196100 4.412496 0.070690
								CHANNELS 3 Xrotation Yrotation Zrotation
								JOINT RightShoulder_split
								{
									OFFSET -2.196100 4.412496 0.070690
									CHANNELS 3 Xrotation Yrotation Zrotation
									JOINT RightArm
									{
										OFFSET -8.771282 -2.981682 -0.094208
										CHANNELS 3 Xrotation Yrotation Zrotation
										JOINT RightForeArm
										{
											OFFSET -8.494598 0.000000 0.000000
											CHANNELS 3 Xrotation Yrotation Zrotation
											JOINT RightHand
											{
												OFFSET -18.483803 0.000000 0.000001
												CHANNELS 3 Xrotation Yrotation Zrotation
												End Site
												{
													OFFSET 0 0 0
												}
											}
										}
									}
								}
							}
						}
					}
				}
			}
		}
	}
}
MOTION
Frames: 11
Frame Time: 0.03333333
2.003035 50.785088 4.770194 0.000000 0.000000 0.000000 10.803287 -31.163776 5.788610 -77.750202 -6.965894 30.811137 74.873688 -12.950362 6.187330 15.411635 6.495899 -15.553087 -8.424328 2.948524 -2.171344 0.000000 0.000000 0.000000 10.633453 -31.845497 5.458545 -115.432874 -19.712534 -7.873064 104.610938 24.879411 -1.556480 26.884968 19.519812 45.907675 14.079196 -21.821529 -30.246414 0.000000 0.000000 0.000000 12.727234 -25.108720 6.248082 22.754130 -0.168996 -10.729627 12.945118 -3.205927 -0.170417 0.222315 0.219955 0.035564 0.000000 0.000000 0.000000 14.115937 -1.394951 -0.744913 2.056270 -1.156563 -5.491970 -20.248152 39.114847 -16.449595 0.000000 0.000000 0.000000 14.353086 -2.888428 -2.084302 13.552402 -5.673819 -2.295398 1.681369 -2.347336 -2.163050 -68.744201 -3.813047 9.644044 49.771349 -2.503422 25.733351 0.000000 0.000000 0.000000 18.977571 -1.416608 -0.704524 3.205839 16.766525 -6.729915 8.616736 6.961120 1.535154 -42.807937 -10.018758 -4.872461 -68.413210 49.073844 43.146493 0.000000 0.000000 0.000000 
2.008694 50.786972 4.807902 0.000000 0.000000 0.000000 10.837377 -31.087107 5.756657 -77.845537 -6.924885 30.849178 74.880143 -12.947182 6.152465 15.577088 6.489655 -15.569093 -8.470165 2.954535 -2.180641 0.000000 0.000000 0.000000 10.653365 -31.679520 5.389692 -115.369463 -19.664825 -7.715021 104.683243 24.786024 -1.644742 26.811515 19.526763 46.006399 14.045391 -21.807069 -30.256498 0.000000 0.000000 0.000000 12.736512 -24.922662 6.155283 22.794850 -0.234853 -10.752314 13.013908 -3.257141 -0.130019 0.232599 0.210608 0.024802 0.000000 0.000000 0.000000 14.201551 -1.423343 -0.748456 2.017629 -1.096502 -5.512006 -20.484719 39.468412 -16.223431 0.000000 0.000000 0.000000 14.423037 -2.928675 -2.007554 13.758158 -6.075103 -1.376062 1.692935 -2.342475 -1.676994 -69.865445 -4.904859 9.878824 49.337711 -2.132929 25.396738 0.000000 0.000000 0.000000 19.018686 -1.473202 -0.667461 3.293192 16.664661 -7.265088 8.848260 6.768167 0.948816 -43.261578 -9.840088 -5.096057 -68.599333 49.349626 43.272387 0.000000 0.000000 0.000000 
2.015944 50.801739 4.857059 0.000000 0.000000 0.000000 10.848124 -30.862702 5.676940 -78.081527 -6.965570 30.882034 74.981865 -13.034211 6.087522 15.897651 6.446459 -15.523886 -8.463958 2.965545 -2.194667 0.000000 0.000000 0.000000 10.649762 -31.355349 5.275967 -115.547075 -19.556744 -7.565693 104.916801 24.621818 -1.739644 27.024671 19.535149 46.027764 13.767714 -21.730371 -30.250583 0.000000 0.000000 0.000000 12.736352 -24.615276 6.060750 22.911571 -0.301478 -10.807748 13.098928 -3.346722 -0.119454 0.237876 0.200935 0.020535 0.000000 0.000000 0.000000 14.324563 -1.484696 -0.775411 1.995210 -1.004064 -5.506265 -20.723166 39.986755 -15.907992 0.000000 0.000000 0.000000 14.525866 -2.991878 -1.942664 14.001044 -6.585791 0.060322 1.811337 -2.238735 -1.610723 -70.964805 -6.973961 10.421468 48.694071 -1.497315 24.762434 0.000000 0.000000 0.000000 19.057278 -1.567134 -0.656987 3.544682 16.479969 -8.448165 8.989361 6.643454 0.949057 -44.079316 -9.754304 -5.410057 -68.856312 49.699175 43.544426 0.000000 0.000000 0.000000 
2.027243 50.830597 4.915621 0.000000 0.000000 0.000000 10.818431 -30.526772 5.539032 -78.381250 -7.085070 30.894148 75.108483 -13.195352 6.008882 16.298713 6.382524 -15.432331 -8.396374 2.981469 -2.215448 0.000000 0.000000 0.000000 10.617430 -30.964669 5.124735 -115.846702 -19.453192 -7.401639 105.204140 24.372938 -1.801798 27.439942 19.479696 45.939344 13.250015 -21.596585 -30.230721 0.000000 0.000000 0.000000 12.727073 -24.258288 5.964535 23.055908 -0.350883 -10.871268 13.188615 -3.457906 -0.138286 0.229740 0.199276 0.026883 0.000000 0.000000 0.000000 14.467128 -1.568127 -0.825535 1.998449 -0.880219 -5.470664 -20.905061 40.652835 -15.552059 0.000000 0.000000 0.000000 14.658165 -3.074646 -1.901846 14.262107 -7.161027 1.744470 2.005688 -2.107099 -1.958323 -71.890856 -9.536238 11.001039 47.963607 -0.706776 23.966002 0.000000 0.000000 0.000000 19.105701 -1.679635 -0.679544 3.910404 16.296001 -10.062691 9.115441 6.678506 1.276626 -45.086506 -9.744861 -5.658280 -69.066729 50.021474 43.845064 0.000000 0.000000 0.000000 
2.036041 50.871155 4.980991 0.000000 0.000000 0.000000 10.732555 -30.122476 5.336461 -78.676778 -7.268056 30.880112 75.183075 -13.413003 5.923370 16.714202 6.309121 -15.306276 -8.324915 2.999026 -2.237063 0.000000 0.000000 0.000000 10.533579 -30.571732 4.928048 -116.170876 -19.399657 -7.236106 105.470360 24.040400 -1.787755 27.974749 19.354097 45.770518 12.682179 -21.449647 -30.163598 0.000000 0.000000 0.000000 12.705964 -23.894327 5.849232 23.197143 -0.369608 -10.918482 13.280086 -3.578461 -0.187291 0.218638 0.194621 0.026407 0.000000 0.000000 0.000000 14.608885 -1.666377 -0.889090 2.032768 -0.725183 -5.398421 -20.981718 41.431709 -15.218235 0.000000 0.000000 0.000000 14.822038 -3.172421 -1.882817 14.525659 -7.740743 3.460339 2.290987 -1.946820 -2.368457 -72.577064 -12.249123 11.383296 47.239651 0.102104 23.168446 0.000000 0.000000 0.000000 19.184311 -1.800386 -0.728817 4.339968 16.209586 -11.790733 9.088482 6.725356 1.629066 -46.196893 -9.650992 -5.805939 -69.131049 50.207614 44.061960 0.000000 0.000000 0.000000 
2.039841 50.921944 5.044479 0.000000 0.000000 0.000000 10.599517 -29.739788 5.083678 -78.905521 -7.490385 30.864218 75.215423 -13.670043 5.847924 17.134245 6.230978 -15.169078 -8.291377 3.016050 -2.260712 0.000000 0.000000 0.000000 10.387117 -30.269322 4.691000 -116.422350 -19.435348 -7.081589 105.679112 23.686056 -1.694203 28.511660 19.207892 45.607188 12.210013 -21.321868 -30.036286 0.000000 0.000000 0.000000 12.666404 -23.602105 5.704392 23.316299 -0.351172 -10.934672 13.379646 -3.701962 -0.255837 0.219946 0.200071 0.030944 0.000000 0.000000 0.000000 14.732429 -1.773313 -0.948771 2.069306 -0.537164 -5.284753 -20.925977 42.271286 -14.965276 0.000000 0.000000 0.000000 15.013707 -3.279346 -1.879743 14.758992 -8.293866 4.964163 2.458159 -1.888910 -2.838634 -72.994116 -14.705519 11.573199 46.544085 0.724249 22.493343 0.000000 0.000000 0.000000 19.312725 -1.924208 -0.800667 4.797372 16.300617 -13.369103 8.897169 6.672284 1.955905 -47.239528 -9.326651 -5.774501 -68.986673 50.195467 44.108375 0.000000 0.000000 0.000000 
2.042239 50.972252 5.110160 0.000000 0.000000 0.000000 10.434085 -29.454938 4.807064 -79.060785 -7.730896 30.889035 75.295691 -13.935028 5.786623 17.556397 6.170255 -15.013627 -8.286266 3.034405 -2.295662 0.000000 0.000000 0.000000 10.198396 -30.076216 4.435096 -116.552056 -19.587120 -6.940445 105.832313 23.358890 -1.571841 28.904135 19.080842 45.538773 11.765060 -21.198356 -29.912158 0.000000 0.000000 0.000000 12.602495 -23.398819 5.527221 23.420398 -0.287800 -10.918573 13.504846 -3.817152 -0.326943 0.230860 0.208261 0.036501 0.000000 0.000000 0.000000 14.821140 -1.882181 -0.991919 2.093733 -0.322714 -5.137434 -20.739379 43.156520 -14.830465 0.000000 0.000000 0.000000 15.223665 -3.392556 -1.886238 14.943020 -8.817676 6.107440 2.492892 -1.975574 -3.154065 -73.332292 -16.767162 11.521932 45.878039 1.077895 22.003840 0.000000 0.000000 0.000000 19.490770 -2.042080 -0.877371 5.244994 16.552212 -14.611146 8.759174 6.547252 2.169035 -48.152519 -8.572189 -5.504330 -68.661699 50.005550 43.986589 0.000000 0.000000 0.000000 
2.041784 51.008995 5.168649 0.000000 0.000000 0.000000 10.238200 -29.320920 4.541912 -79.160854 -7.975913 30.979300 75.493616 -14.163606 5.745970 17.975545 6.166322 -14.824541 -8.272227 3.058347 -2.358120 0.000000 0.000000 0.000000 9.999762 -29.991958 4.188033 -116.553708 -19.853085 -6.804483 105.943105 23.068032 -1.463992 29.050724 18.987832 45.578925 11.329475 -21.073022 -29.840010 0.000000 0.000000 0.000000 12.494433 -23.309892 5.320635 23.546439 -0.192589 -10.879314 13.668613 -3.918091 -0.387017 0.245642 0.200913 0.036930 0.000000 0.000000 0.000000 14.891312 -1.980960 -1.007322 2.097558 -0.081468 -4.950339 -20.446566 44.077834 -14.837637 0.000000 0.000000 0.000000 15.445754 -3.497314 -1.883515 15.067527 -9.324594 6.800311 2.349132 -2.191761 -3.316032 -73.654513 -18.441239 11.243854 45.314228 1.125323 21.737205 0.000000 0.000000 0.000000 19.684897 -2.152880 -0.941294 5.648754 16.959503 -15.416647 8.654983 6.487530 2.335751 -48.897335 -7.324814 -4.922101 -68.094623 49.616065 43.602056 0.000000 0.000000 0.000000 
2.039768 51.024723 5.215599 0.000000 0.000000 0.000000 10.013085 -29.349791 4.317868 -79.215776 -8.221564 31.120114 75.815708 -14.321678 5.740464 18.355556 6.243717 -14.639570 -8.202969 3.088227 -2.452620 0.000000 0.000000 0.000000 9.801499 -30.007261 3.968210 -116.455231 -20.186308 -6.675369 106.052299 22.809000 -1.389542 28.967850 18.904026 45.652380 11.043970 -20.973163 -29.794036 0.000000 0.000000 0.000000 12.346361 -23.355251 5.110388 23.702271 -0.082250 -10.836026 13.870937 -3.997034 -0.431772 0.255588 0.184140 0.039810 0.000000 0.000000 0.000000 14.974503 -2.053880 -1.001186 2.075585 0.174681 -4.724971 -20.058177 44.994722 -15.011631 0.000000 0.000000 0.000000 15.677084 -3.581948 -1.869886 15.120280 -9.867150 6.990266 2.216024 -2.559315 -3.325497 -73.988448 -19.643102 10.789429 44.861372 0.902626 21.644245 0.000000 0.000000 0.000000 19.853540 -2.249492 -0.991844 5.966246 17.512182 -15.755424 8.596483 6.458216 2.408526 -49.513821 -5.664196 -3.960491 -67.257228 49.031339 42.896870 0.000000 0.000000 0.000000 
2.038212 51.021927 5.245161 0.000000 0.000000 0.000000 9.785693 -29.500232 4.157507 -79.228016 -8.468773 31.276638 76.214802 -14.416463 5.778073 18.666967 6.379370 -14.515889 -8.078703 3.120403 -2.566566 0.000000 0.000000 0.000000 9.613712 -30.094654 3.801547 -116.331919 -20.504493 -6.557044 106.193186 22.580872 -1.357227 28.756353 18.824490 45.713643 10.972485 -20.919136 -29.752427 0.000000 0.000000 0.000000 12.173977 -23.518530 4.928952 23.870160 0.023889 -10.798416 14.089763 -4.054417 -0.468771 0.251396 0.149955 0.041172 0.000000 0.000000 0.000000 15.092032 -2.098865 -0.989844 2.012446 0.430940 -4.476102 -19.570119 45.867247 -15.377384 0.000000 0.000000 0.000000 15.913215 -3.640893 -1.860705 15.106678 -10.511352 6.713954 2.154414 -2.920479 -3.143872 -74.358910 -20.439266 10.095410 44.456065 0.646215 21.585636 0.000000 0.000000 0.000000 19.993029 -2.323157 -1.035483 6.150987 18.159238 -15.652934 8.582159 6.488080 2.465527 -50.077588 -3.695364 -2.720550 -66.179499 48.291534 41.870699 0.000000 0.000000 0.000000 
2.037104 51.005459 5.252714 0.000000 0.000000 0.000000 9.586709 -29.723867 4.070233 -79.198776 -8.702641 31.425004 76.612094 -14.470825 5.858372 18.908627 6.519036 -14.514430 -7.941034 3.150277 -2.674239 0.000000 0.000000 0.000000 9.448171 -30.241212 3.701359 -116.236815 -20.736567 -6.444492 106.364726 22.413428 -1.362328 28.522100 18.787636 45.747572 11.038898 -20.904764 -29.728265 0.000000 0.000000 0.000000 11.995042 -23.769919 4.800542 24.023324 0.114020 -10.772702 14.308131 -4.089537 -0.512047 0.243746 0.107384 0.038960 0.000000 0.000000 0.000000 15.254529 -2.116353 -0.983679 1.912391 0.668109 -4.222575 -18.965808 46.644403 -15.942631 0.000000 0.000000 0.000000 16.147657 -3.668939 -1.874961 15.022356 -11.277924 6.028485 2.147013 -3.275581 -2.862911 -74.611668 -20.857545 9.231757 44.073968 0.427704 21.514783 0.000000 0.000000 0.000000 20.114636 -2.368213 -1.086930 6.187829 18.864286 -15.185539 8.510369 6.518091 2.527409 -50.586638 -1.624181 -1.297468 -64.892562 47.453586 40.533621 0.000000 0.000000 0.000000 
